<?xml version="1.0" encoding="UTF-8"?>
<!DOCTYPE svg PUBLIC "-//W3C//DTD SVG 1.1//EN" "http://www.w3.org/Graphics/SVG/1.1/DTD/svg11.dtd">
<!-- Creator: CorelDRAW 2018 -->
<svg xmlns="http://www.w3.org/2000/svg" xml:space="preserve" width="50px" height="50px" version="1.1" style="shape-rendering:geometricPrecision; text-rendering:geometricPrecision; image-rendering:optimizeQuality; fill-rule:evenodd; clip-rule:evenodd"
viewBox="0 0 50 50"
 xmlns:xlink="http://www.w3.org/1999/xlink">
 <defs>
  <style type="text/css">
   <![CDATA[
    .fil0 {fill:#5CD61A}
   ]]>
  </style>
 </defs>
 <g id="Слой_x0020_1">
  <metadata id="CorelCorpID_0Corel-Layer"/>
  <path class="fil0" d="M44.94 31.04c-0.64,0 -1.17,0.53 -1.17,1.18l0 10.43c0,1.94 -1.58,3.52 -3.52,3.52l-32.96 0c-1.94,0 -3.52,-1.58 -3.52,-3.52l0 -30.61c0,-1.94 1.58,-3.52 3.52,-3.52l10.43 0c0.65,0 1.18,-0.53 1.18,-1.17 0,-0.65 -0.53,-1.18 -1.18,-1.18l-10.43 0c-3.24,0 -5.86,2.63 -5.87,5.87l0 30.61c0.01,3.24 2.63,5.87 5.87,5.87l32.96 0c3.24,0 5.87,-2.63 5.87,-5.87l0 -10.43c0,-0.65 -0.53,-1.18 -1.18,-1.18l0 0zm0 0z"/>
  <path class="fil0" d="M45.65 3.15c-2.06,-2.06 -5.41,-2.06 -7.47,0l-20.95 20.95c-0.15,0.14 -0.25,0.32 -0.3,0.52l-2.76 9.95c-0.11,0.4 0,0.84 0.3,1.14 0.3,0.3 0.74,0.41 1.15,0.3l9.94 -2.75c0.2,-0.06 0.38,-0.16 0.52,-0.31l20.95 -20.95c2.06,-2.06 2.06,-5.41 0,-7.47l-1.38 -1.38zm-25.86 21.71l17.14 -17.14 5.53 5.53 -17.14 17.14 -5.53 -5.53zm-1.11 2.22l4.42 4.42 -6.11 1.69 1.69 -6.11zm26.69 -16.74l-1.24 1.25 -5.53 -5.53 1.24 -1.25c1.15,-1.15 3.01,-1.15 4.15,0l1.38 1.38c1.15,1.15 1.15,3 0,4.15zm0 0z"/>
 </g>
</svg>
