<?xml version="1.0" encoding="UTF-8"?>
<!DOCTYPE svg PUBLIC "-//W3C//DTD SVG 1.1//EN" "http://www.w3.org/Graphics/SVG/1.1/DTD/svg11.dtd">
<!-- Creator: CorelDRAW 2018 -->
<svg xmlns="http://www.w3.org/2000/svg" xml:space="preserve" width="50px" height="50px" version="1.1" style="shape-rendering:geometricPrecision; text-rendering:geometricPrecision; image-rendering:optimizeQuality; fill-rule:evenodd; clip-rule:evenodd"
viewBox="0 0 50 50"
 xmlns:xlink="http://www.w3.org/1999/xlink">
 <defs>
  <style type="text/css">
   <![CDATA[
    .str0 {stroke:black;stroke-width:0.79;stroke-miterlimit:22.9256}
    .str1 {stroke:#2B2A29;stroke-width:1.32;stroke-miterlimit:22.9256}
    .fil1 {fill:none}
    .fil0 {fill:black}
   ]]>
  </style>
 </defs>
 <g id="Слой_x0020_1">
  <metadata id="CorelCorpID_0Corel-Layer"/>
  <g id="_763971072">
   <path class="fil0" d="M-28.15 29.9l-3.66 -9.13c-0.19,-0.48 -0.65,-0.79 -1.16,-0.79 -0.16,0 -0.32,0.03 -0.47,0.09l-9.13 3.66c-0.47,0.19 -0.79,0.65 -0.79,1.16 0,0.16 0.03,0.32 0.09,0.47l3.66 9.13c0.19,0.47 0.65,0.79 1.17,0.79 0.16,0 0.32,-0.04 0.46,-0.09l9.13 -3.66c0.48,-0.19 0.79,-0.65 0.79,-1.17 0,-0.16 -0.03,-0.32 -0.09,-0.46l0 0zm-1.77 2.36l-9.12 3.66c-0.03,0.01 -0.07,0.02 -0.1,0.02 -0.04,0 -0.08,-0.01 -0.12,-0.03 -0.06,-0.03 -0.12,-0.08 -0.15,-0.15l-3.65 -9.13c-0.01,-0.03 -0.02,-0.06 -0.02,-0.1 0,-0.12 0.07,-0.22 0.18,-0.26l9.12 -3.66c0.03,-0.01 0.07,-0.02 0.11,-0.02 0.11,0 0.22,0.07 0.26,0.18l3.65 9.12c0.02,0.04 0.02,0.07 0.02,0.11 0,0.11 -0.07,0.22 -0.18,0.26z"/>
   <path class="fil0" d="M-37.75 25.18c-0.18,-0.08 -0.38,-0.12 -0.57,-0.12 -0.8,0 -1.45,0.65 -1.45,1.45 0,0.8 0.65,1.45 1.45,1.45 0.58,0 1.1,-0.35 1.33,-0.88 0.08,-0.18 0.12,-0.38 0.12,-0.57 0,-0.58 -0.35,-1.11 -0.88,-1.33l0 0zm0.62 3.41c-0.07,0.18 -0.24,0.29 -0.43,0.29 -0.19,0 -0.37,-0.12 -0.44,-0.3 -0.02,-0.05 -0.03,-0.11 -0.03,-0.17 0,-0.26 0.21,-0.47 0.47,-0.47 0,0 0,0 0,0 0.26,0 0.47,0.21 0.47,0.47 0,0.06 -0.01,0.13 -0.04,0.18l0 0z"/>
   <path class="fil0" d="M-32.53 27.42c-0.18,-0.08 -0.37,-0.12 -0.57,-0.12 -0.79,0 -1.44,0.65 -1.44,1.45 0,0.8 0.65,1.44 1.44,1.44 0.58,0 1.11,-0.34 1.33,-0.87 0.08,-0.18 0.12,-0.38 0.12,-0.57 0,-0.58 -0.34,-1.1 -0.88,-1.33l0 0zm0.63 3.41c-0.08,0.18 -0.25,0.29 -0.44,0.29 -0.26,0 -0.47,-0.21 -0.47,-0.47 0,-0.26 0.21,-0.48 0.47,-0.48 0.01,0 0.01,0 0.01,0 0,0 0,0 0,0 0.06,0 0.12,0.02 0.18,0.04 0.17,0.08 0.29,0.25 0.29,0.44 0,0.06 -0.02,0.12 -0.04,0.18l0 0z"/>
   <path class="fil0" d="M-22.52 33.94l-9.82 0c-0.7,0.01 -1.26,0.57 -1.26,1.26l0 9.83c0,0.7 0.56,1.26 1.26,1.26l9.82 0c0.7,0 1.26,-0.56 1.26,-1.26l0 -9.83c0,-0.69 -0.56,-1.25 -1.26,-1.26zm1.55 12.35c0,0.16 -0.13,0.28 -0.29,0.28 0,0 0,0 0,0l-9.83 0c-0.15,0 -0.28,-0.12 -0.28,-0.28l0 -9.83c0,0 0,0 0,0 0,-0.16 0.13,-0.28 0.28,-0.28l9.83 0c0.16,0 0.29,0.12 0.29,0.28l0 9.83z"/>
   <path class="fil0" d="M-30.27 36.05c-0.8,0 -1.45,0.65 -1.45,1.45 0,0.79 0.65,1.44 1.45,1.44 0.8,0 1.44,-0.65 1.44,-1.44 0,-0.8 -0.64,-1.45 -1.44,-1.45l0 0zm1.44 3.36c-0.26,0 -0.47,-0.21 -0.47,-0.47 0,-0.26 0.21,-0.47 0.47,-0.47 0.27,0 0.48,0.21 0.48,0.47 0,0.26 -0.22,0.47 -0.48,0.47z"/>
   <path class="fil0" d="M-24.59 36.05c-0.8,0 -1.44,0.65 -1.44,1.45 0,0.79 0.64,1.44 1.44,1.44 0.8,0 1.45,-0.65 1.45,-1.44 0,-0.8 -0.65,-1.45 -1.45,-1.45l0 0zm1.45 3.36c-0.26,0 -0.47,-0.21 -0.47,-0.47 0,-0.26 0.21,-0.47 0.47,-0.47 0.26,0 0.47,0.21 0.47,0.47 0,0.26 -0.21,0.47 -0.47,0.47z"/>
   <path class="fil0" d="M-30.27 41.29c-0.8,0 -1.45,0.65 -1.45,1.45 0,0.8 0.65,1.45 1.45,1.45 0.8,0 1.44,-0.65 1.44,-1.45 0,0 0,0 0,0 0,-0.8 -0.64,-1.45 -1.44,-1.45l0 0zm1.44 3.37c-0.26,0 -0.47,-0.21 -0.47,-0.48 0,-0.26 0.21,-0.47 0.47,-0.47 0.26,0 0.48,0.21 0.48,0.47 0,0.26 -0.22,0.48 -0.48,0.48l0 0z"/>
   <path class="fil0" d="M-24.59 41.29c-0.8,0 -1.44,0.65 -1.44,1.45 0,0.8 0.64,1.45 1.44,1.45 0.8,0 1.45,-0.65 1.45,-1.45 0,0 0,0 0,0 0,-0.8 -0.65,-1.45 -1.45,-1.45l0 0zm1.45 3.37c-0.26,0 -0.47,-0.21 -0.47,-0.48 0,-0.26 0.21,-0.47 0.47,-0.47 0.26,0 0.47,0.21 0.47,0.47 0,0 0,0 0,0 0,0.26 -0.21,0.48 -0.47,0.48l0 0z"/>
  </g>
  <rect class="fil1 str0" x="23.26" y="25.9" width="13.85" height="13.85" rx="1.2" ry="1.2"/>
  <circle class="fil0" cx="27.62" cy="30.55" r="1.04"/>
  <circle class="fil0" cx="32.67" cy="30.55" r="1.04"/>
  <circle class="fil0" cx="27.62" cy="35.2" r="1.04"/>
  <circle class="fil0" cx="32.67" cy="35.2" r="1.04"/>
  <rect class="fil1 str0" transform="matrix(1.2455 -0.472545 0.472545 1.2455 11.0406 13.3742)" width="10.39" height="10.39" rx="0.9" ry="0.9"/>
  <circle class="fil0" transform="matrix(1.06604 -0.404454 0.404454 1.06604 16.7707 16.1717)" r="0.91"/>
  <circle class="fil0" transform="matrix(1.06604 -0.404454 0.404454 1.06604 23.1334 18.7319)" r="0.91"/>
  <circle class="fil1 str1" cx="24.96" cy="24.98" r="24.16"/>
 </g>
</svg>
