<?xml version="1.0" encoding="UTF-8"?>
<!DOCTYPE svg PUBLIC "-//W3C//DTD SVG 1.1//EN" "http://www.w3.org/Graphics/SVG/1.1/DTD/svg11.dtd">
<!-- Creator: CorelDRAW 2018 -->
<svg xmlns="http://www.w3.org/2000/svg" xml:space="preserve" width="50px" height="50px" version="1.1" style="shape-rendering:geometricPrecision; text-rendering:geometricPrecision; image-rendering:optimizeQuality; fill-rule:evenodd; clip-rule:evenodd"
viewBox="0 0 50 50"
 xmlns:xlink="http://www.w3.org/1999/xlink">
 <defs>
  <style type="text/css">
   <![CDATA[
    .fil0 {fill:#5CD61A}
   ]]>
  </style>
 </defs>
 <g id="Слой_x0020_1">
  <metadata id="CorelCorpID_0Corel-Layer"/>
  <g id="_701512672">
   <g>
    <g>
     <path class="fil0" d="M49.67 9.42l-9.09 -9.09c-0.22,-0.21 -0.51,-0.33 -0.81,-0.33l-35.22 0c-2.51,0 -4.55,2.04 -4.55,4.55l0 40.9c0,2.51 2.04,4.55 4.55,4.55l40.9 0c2.51,0 4.55,-2.04 4.55,-4.55l0 -35.22c0,-0.3 -0.12,-0.59 -0.33,-0.81zm-38.31 -7.15l25 0 0 13.64c0,1.25 -1.02,2.27 -2.27,2.27l-20.45 0c-1.26,0 -2.28,-1.02 -2.28,-2.27l0 -13.64zm29.55 45.46l-31.82 0 0 -20.46 31.82 0 0 20.46zm6.82 -2.28c0,1.26 -1.02,2.28 -2.28,2.28l-2.27 0 0 -21.59c0,-0.63 -0.51,-1.14 -1.13,-1.14l-34.1 0c-0.62,0 -1.13,0.51 -1.13,1.14l0 21.59 -2.27 0c-1.26,0 -2.28,-1.02 -2.28,-2.28l0 -40.9c0,-1.26 1.02,-2.28 2.28,-2.28l4.54 0 0 13.64c0,2.51 2.04,4.54 4.55,4.54l20.45 0c2.51,0 4.55,-2.03 4.55,-4.54l0 -13.64 0.66 0 8.43 8.43 0 34.75z"/>
     <path class="fil0" d="M28.41 15.91l4.54 0c0.63,0 1.14,-0.51 1.14,-1.14l0 -9.09c0,-0.63 -0.51,-1.13 -1.14,-1.13l-4.54 0c-0.63,0 -1.14,0.5 -1.14,1.13l0 9.09c0,0.63 0.51,1.14 1.14,1.14zm1.14 -9.09l2.27 0 0 6.82 -2.27 0 0 -6.82z"/>
    </g>
   </g>
  </g>
  <g id="_701512768">
  </g>
  <g id="_701512432">
  </g>
  <g id="_701512600">
  </g>
  <g id="_701512072">
  </g>
  <g id="_701511688">
  </g>
  <g id="_701511568">
  </g>
  <g id="_701511736">
  </g>
  <g id="_701511184">
  </g>
  <g id="_701510680">
  </g>
  <g id="_701510824">
  </g>
  <g id="_701510584">
  </g>
  <g id="_701509624">
  </g>
  <g id="_701510272">
  </g>
  <g id="_701510152">
  </g>
  <g id="_701509504">
  </g>
 </g>
</svg>
